<svg id="Layer_1" data-name="Layer 1" xmlns="http://www.w3.org/2000/svg" viewBox="0 0 221.08 236.99"><defs><style>.cls-1{fill:#fff;}</style></defs><path class="cls-1" d="M128.81,230.92a16.46,16.46,0,0,1,1.63,8.53,12.55,12.55,0,0,1-2.54,6.45,14.1,14.1,0,0,1-5.31,4.08,15.06,15.06,0,0,1-6.67,1.36,14.46,14.46,0,0,1-6.62-1.81,13.15,13.15,0,0,1-5.18-5.27A14.93,14.93,0,0,0,95.77,248a18.51,18.51,0,0,0-4.67,7,23.35,23.35,0,0,0,.23,16.61,16.91,16.91,0,0,0,4.94,7,18.82,18.82,0,0,0,7.17,3.67,22.06,22.06,0,0,0,8.26.55,24.94,24.94,0,0,0,8.17-2.41,24.12,24.12,0,0,0,6.89-5.12,20.25,20.25,0,0,0,4.5-7.58,22.42,22.42,0,0,1,.4,9.66,22.68,22.68,0,0,1-3.31,8.35,25.81,25.81,0,0,1-6.26,6.62,30.56,30.56,0,0,1-8.39,4.45,34.09,34.09,0,0,1-9.71,1.81,30.75,30.75,0,0,1-10.3-1.31q-13.62-3.9-20.24-17.88a32.1,32.1,0,0,1-2.13-8,42.42,42.42,0,0,1-.32-8.58,43.33,43.33,0,0,1,1.36-8.39,36.14,36.14,0,0,1,2.91-7.53.52.52,0,0,0,.18-.28,29.34,29.34,0,0,1,4.94-6.76,38.56,38.56,0,0,1,6.72-5.49,36.83,36.83,0,0,1,7.67-3.76,23.33,23.33,0,0,1,7.8-1.41,30,30,0,0,1,5.26.45,7,7,0,0,1,4.45,3.18,10.59,10.59,0,0,0,4,3.54,9,9,0,0,0,4.77,1,8.61,8.61,0,0,0,4.54-1.77A9.66,9.66,0,0,0,128.81,230.92Z" transform="translate(-70.91 -63.81)"/><path class="cls-1" d="M163.11,296.9a8.32,8.32,0,0,1-3.09,1.81,14.13,14.13,0,0,1-3.17.55,15.45,15.45,0,0,1-5.45-.59,53.9,53.9,0,0,0-5.26-1.32,51.28,51.28,0,0,0-5.95-.82,13.24,13.24,0,0,0-5.58.91.76.76,0,0,1-.27-.86c.12-.27.24-.53.36-.77a28.74,28.74,0,0,0,2.5-6.4,54.57,54.57,0,0,0,1.41-7.49q.45-3.9.63-7.89t.27-7.62q.54-7.91.59-13.12a59,59,0,0,0-.54-9.12,36.73,36.73,0,0,0-1.82-7.21c-.82-2.21-1.86-4.64-3.13-7.31.24-.36.45-.51.64-.45a4.94,4.94,0,0,1,.63.27,14.59,14.59,0,0,0,6.08,1.68,26.19,26.19,0,0,0,6.26-.5,36.11,36.11,0,0,1,3.86-1,21.89,21.89,0,0,1,4.36-.45,11.2,11.2,0,0,1,3.94.68,5,5,0,0,1,2.73,2.4,4.68,4.68,0,0,0-2.14,2,15.72,15.72,0,0,0-1.63,3.54,32.51,32.51,0,0,0-1.59,8.21q-.72,9.8-.59,19.78t.23,19.42a22.71,22.71,0,0,0,1.9,7.35A9.12,9.12,0,0,0,163.11,296.9Z" transform="translate(-70.91 -63.81)"/><path class="cls-1" d="M213.2,259.42a9,9,0,0,0,2.72-4.09,6.76,6.76,0,0,0,0-4,5.8,5.8,0,0,0-2.4-3.09,8.18,8.18,0,0,0-4.63-1.22l-2.09-.14a2.7,2.7,0,0,0-1.36.23,1.59,1.59,0,0,0-.77,1,10.86,10.86,0,0,0-.32,2.23q-.36,8.79-.32,17c0,5.45.2,10.74.51,15.88a9.72,9.72,0,0,0,1.72,4.95q1.37,1.77,4.44.5a15.78,15.78,0,0,1-3.35,6.72,10.35,10.35,0,0,1-4.67,2.9,15.16,15.16,0,0,1-5.5.45q-2.9-.27-5.85-.63a52,52,0,0,0-5.71-.41,10.33,10.33,0,0,0-5,1.13,10.75,10.75,0,0,1,1.27-3.81c.6-1,1.21-2.09,1.81-3.18a22.8,22.8,0,0,0,1.64-3.76,19.43,19.43,0,0,0,.81-5.58q.63-8.18.46-16.66t-.09-16.65a3.29,3.29,0,0,0-.05-.54c0-.18-.08-.42-.14-.73a10,10,0,0,0-5.21-.81,8.9,8.9,0,0,0-4.72,1.72,5.31,5.31,0,0,0-2,4.13q-.14,2.69,2.95,6.4a5.22,5.22,0,0,1-3.58-.36,10.74,10.74,0,0,1-3-2.23,15.08,15.08,0,0,1-2.32-3.08,23.72,23.72,0,0,1-1.5-3.14,33.17,33.17,0,0,1-1.18-11.43,39.24,39.24,0,0,1,2.46-10.71,68.5,68.5,0,0,0,13.11,3.77,87.47,87.47,0,0,0,14.61,1.45,97,97,0,0,0,15.52-1,95.58,95.58,0,0,0,15.83-3.67,36.1,36.1,0,0,1,.64,6,40.51,40.51,0,0,1-.37,6.67,37.11,37.11,0,0,1-1.5,6.58,21.69,21.69,0,0,1-2.76,5.72,13.7,13.7,0,0,1-4.22,4A11.17,11.17,0,0,1,213.2,259.42Z" transform="translate(-70.91 -63.81)"/><path class="cls-1" d="M259.2,300.8a35.45,35.45,0,0,1-14.15-3.72,32.69,32.69,0,0,1-10.85-8.76,36.59,36.59,0,0,1-6.53-12.84,40.2,40.2,0,0,1-1.13-16,48,48,0,0,1,2.67-10.07,36.41,36.41,0,0,1,4.77-8.71,29.29,29.29,0,0,1,6.89-6.67,27.21,27.21,0,0,1,9.08-4,33.64,33.64,0,0,1,9.62-1.14,54.31,54.31,0,0,1,9.61,1.14,28.36,28.36,0,0,1,12.57,6.44,29.85,29.85,0,0,1,7.76,11.16,52.27,52.27,0,0,1,2.32,11.71,48.41,48.41,0,0,1-.5,12,42.94,42.94,0,0,1-3.5,11.2,33.27,33.27,0,0,1-6.48,9.35,30.18,30.18,0,0,1-9.53,6.44A32.33,32.33,0,0,1,259.2,300.8Zm.82-55.45a14.55,14.55,0,0,0-7.17,1.91,17.15,17.15,0,0,0-5.17,4.63,20.17,20.17,0,0,0-3.13,6.21,22.33,22.33,0,0,0-1.05,6.58,20.64,20.64,0,0,0,1.18,6.63,22.6,22.6,0,0,0,3.32,6.3,18.82,18.82,0,0,0,5.17,4.77,13.07,13.07,0,0,0,6.76,2,10.58,10.58,0,0,0,6.31-1.77,23,23,0,0,0,5.31-4.49,17.73,17.73,0,0,0,3-5.62,24.39,24.39,0,0,0,1.23-6.85,27.7,27.7,0,0,0-.69-7.17,19.17,19.17,0,0,0-2.72-6.45,15.34,15.34,0,0,0-4.94-4.67A15.62,15.62,0,0,0,260,245.35Z" transform="translate(-70.91 -63.81)"/><path class="cls-1" d="M96.42,78.84a6.84,6.84,0,0,1,2.17,3.6,5.64,5.64,0,0,1-.37,3.37,7.92,7.92,0,0,1-2.16,2.79,9.82,9.82,0,0,1-3.26,1.83,9.49,9.49,0,0,1-3.75.44,7.19,7.19,0,0,1-3.61-1.34,8.6,8.6,0,0,0-3.67,3.37A8.51,8.51,0,0,0,80.66,97a9.42,9.42,0,0,0,.89,4,10.24,10.24,0,0,0,2.34,3.27,8.66,8.66,0,0,0,3.73,2.1,11,11,0,0,0,4.15.26,13.17,13.17,0,0,0,4.13-1.28,14.55,14.55,0,0,0,3.62-2.51,13.59,13.59,0,0,0,2.62-3.49,9.82,9.82,0,0,0,1.11-4.18,9.7,9.7,0,0,1,1.65,4.33,10.68,10.68,0,0,1-.38,4.33,13,13,0,0,1-2,4,17,17,0,0,1-3.3,3.43,19.79,19.79,0,0,1-4.29,2.53,18.16,18.16,0,0,1-5.1,1.34,17.21,17.21,0,0,1-13.09-3.67,15.06,15.06,0,0,1-2.67-3,17.91,17.91,0,0,1-1.92-3.65,17.08,17.08,0,0,1-1-4,15.41,15.41,0,0,1-.06-4c0-.08,0-.13,0-.16a13.44,13.44,0,0,1,1.19-4.09,19.73,19.73,0,0,1,2.44-3.93,21.29,21.29,0,0,1,3.36-3.35A15.09,15.09,0,0,1,82,83.12a18.91,18.91,0,0,1,2.91-.87,4,4,0,0,1,2.93.54,6.21,6.21,0,0,0,5.43.38,5.41,5.41,0,0,0,2.15-1.63A4.63,4.63,0,0,0,96.42,78.84Z" transform="translate(-70.91 -63.81)"/><path class="cls-1" d="M104.2,83a5.27,5.27,0,0,0-1.36-.54,5.17,5.17,0,0,1-1.3-.67,4.64,4.64,0,0,1-1.14-1.12,5.15,5.15,0,0,1-.81-1.94,10.1,10.1,0,0,0,3.64-.8q2-.78,4.36-1.88t4.9-2.25a38.11,38.11,0,0,1,5.22-1.94,24.65,24.65,0,0,1,5.27-.94,10.54,10.54,0,0,1,5,.73,7.26,7.26,0,0,1,3.64,3.89,12.51,12.51,0,0,1,.88,5.54,8.12,8.12,0,0,0-4.17-3.16,11.24,11.24,0,0,0-4.76-.33,22.36,22.36,0,0,0-4.86,1.27c-1.61.61-4.2,1.16-4.53,1.61s.13,1.81.37,2.65.5,1.7.78,2.58a13.75,13.75,0,0,0,2.38-.37c.88-.2,1.77-.43,2.67-.68s1.8-.52,2.67-.81,1.65-.55,2.3-.79a6.8,6.8,0,0,1,.54,1.71c.08.51.16,1,.23,1.48a11.68,11.68,0,0,0,.33,1.42,6.31,6.31,0,0,0,.75,1.57,6.47,6.47,0,0,1-2,.78c-1,.27-2,.53-3.13.78l-3.1.7-1.9.45a3.54,3.54,0,0,0,.1,1.21c.11.46.24,1,.38,1.49s.29,1.06.45,1.57a13.56,13.56,0,0,1,.34,1.37c.76-.07,1.65-.19,2.67-.32s2.07-.3,3.19-.49,2.2-.44,3.27-.74a16.83,16.83,0,0,0,2.93-1.11,8,8,0,0,0,2.19-1.56,3.65,3.65,0,0,0,1-2.22,5.82,5.82,0,0,1,2.4,4.17,6.42,6.42,0,0,1-1.3,4.15,10.9,10.9,0,0,1-4,3.26,16.24,16.24,0,0,1-5.69,1.56c-1.36.16-2.93.37-4.55.45a44.65,44.65,0,0,0-4.65.46,16,16,0,0,0-4,1.08,4.36,4.36,0,0,0-2.4,2.29,5.27,5.27,0,0,1-.76-3,7.12,7.12,0,0,1,.81-3.09,3.12,3.12,0,0,0,.23-2.44c-.62-2-1.21-4-1.79-5.95s-1.17-4-1.78-6l-.8-2.6A6.17,6.17,0,0,0,104.2,83Z" transform="translate(-70.91 -63.81)"/><path class="cls-1" d="M161.07,87.37a9.94,9.94,0,0,1,1.66,1.93,20.48,20.48,0,0,1,1.06,1.86c.3.59.57,1.15.83,1.68a5.5,5.5,0,0,0,.93,1.37,3.57,3.57,0,0,0,1.42.88,6.84,6.84,0,0,0,2.29.32,9.32,9.32,0,0,1-2.89,2.65,8,8,0,0,1-3,1,6.55,6.55,0,0,1-2.74-.29,7.51,7.51,0,0,1-2.14-1.08,6.5,6.5,0,0,1-1.65-2c-.44-.8-.86-1.61-1.26-2.42A20.5,20.5,0,0,0,154.28,91a4.07,4.07,0,0,0-1.91-1.5,9,9,0,0,0-1.87,0,8.21,8.21,0,0,0-2,.29c-.19.25.23,2,.36,3a11.31,11.31,0,0,0,.56,2.88,1,1,0,0,0,1.14.53,1.78,1.78,0,0,0,1.1-.82,3.94,3.94,0,0,1-.18,2.67A3.85,3.85,0,0,1,150,99.64a7.19,7.19,0,0,1-2.22.77,15.93,15.93,0,0,1-2.38.27c-1,0-2.17.09-3.39.22a27.7,27.7,0,0,0-3.37.58c.19-.6.43-1.23.71-1.9s.53-1.34.75-2a16.94,16.94,0,0,0,.52-2.1,7,7,0,0,0,0-2.14c-.36-2.61-.71-5.53-1.31-8.42s-1.23-5.67-1.9-8.32c-3.29-.24-4.8-2.61-4.4-7.22a4.12,4.12,0,0,0,2.13.79,9.58,9.58,0,0,0,2.42-.15c.84-.15,1.69-.36,2.57-.61s1.74-.47,2.57-.65c1.43-.32,2.88-.66,4.32-1a40.24,40.24,0,0,1,4.32-.75,23.55,23.55,0,0,1,4.27-.1,14.73,14.73,0,0,1,4.12.88,9.82,9.82,0,0,1,3.19,1.91,11.4,11.4,0,0,1,2.29,2.87,10.9,10.9,0,0,1,1.14,4.06,12.27,12.27,0,0,1-.31,4.2,11.26,11.26,0,0,1-1.76,3.76A9.74,9.74,0,0,1,161.07,87.37ZM146.29,76c.14.51.26,1.06.37,1.66l.3,1.82c.1.62.2,1.22.3,1.81a14.65,14.65,0,0,0,.34,1.55c.79-.14,1.78-.25,2.94-.34a17.22,17.22,0,0,0,3.3-.56,6,6,0,0,0,2.52-1.34,2.69,2.69,0,0,0,.58-2.66,3.48,3.48,0,0,0-1-2,4,4,0,0,0-1.77-.93A6.8,6.8,0,0,0,152,74.9a15.08,15.08,0,0,0-2.24.29c-.74.15-1.41.3-2,.47S146.65,76,146.29,76Z" transform="translate(-70.91 -63.81)"/><path class="cls-1" d="M166.09,70.83a8.21,8.21,0,0,1,.85-2.56,8,8,0,0,1,1.61-2.16,6.84,6.84,0,0,1,2.32-1.42,6.67,6.67,0,0,1,3-.33,16.91,16.91,0,0,1,2.74.47,10.8,10.8,0,0,0,2,.37,5.74,5.74,0,0,0,2-.2,11.08,11.08,0,0,0,2.53-1.19A22,22,0,0,0,182,70a46.21,46.21,0,0,0,.28,6.63,63.64,63.64,0,0,0,1.09,6.56q.72,3.22,1.45,6c.57-1.22,1.15-2.49,1.73-3.81s1.13-2.68,1.62-4,.93-2.73,1.29-4.08a33.91,33.91,0,0,0,.79-3.94,7.24,7.24,0,0,0,0-1.8,3,3,0,0,0-.54-1.48,1.62,1.62,0,0,0-1.27-.61,3.88,3.88,0,0,0-2.1.77,6.17,6.17,0,0,1,1.28-3.07,7.31,7.31,0,0,1,2.41-2,8.72,8.72,0,0,1,3-.86,8.33,8.33,0,0,1,3.1.21c.5.15,1,.32,1.55.45s1.1.23,1.6.37,1,.32,1.44.41a4,4,0,0,0,1.23.11,3.69,3.69,0,0,0,1.18-.31,8.25,8.25,0,0,0,1.35-.82,3,3,0,0,1-.08,1.65,14.28,14.28,0,0,1-.63,1.57c-1.25,2.46-2.54,4.89-3.89,7.29s-2.62,4.81-3.83,7.23-2.32,4.87-3.32,7.34a49.2,49.2,0,0,0-2.37,7.6,7.57,7.57,0,0,1-3.13.45q-1.64-.12-3.18-.36a21.48,21.48,0,0,0-3-.28,4.64,4.64,0,0,0-2.61.69,19.58,19.58,0,0,1-1-3.35c-.31-1.4-.63-2.94-1-4.61s-.7-3.41-1.07-5.23-.78-3.56-1.23-5.25a44.63,44.63,0,0,0-1.47-4.64A13,13,0,0,0,171,71.45a4,4,0,0,0-2.24-1.54A3.17,3.17,0,0,0,166.09,70.83Z" transform="translate(-70.91 -63.81)"/><path class="cls-1" d="M208.05,72.43a4.79,4.79,0,0,0-1-1,5.31,5.31,0,0,1-.94-1.11,4.89,4.89,0,0,1-.61-1.47,5.18,5.18,0,0,1,0-2.09,10.12,10.12,0,0,0,3.64.62c1.44,0,3,0,4.72-.11s3.5-.17,5.36-.25a37.87,37.87,0,0,1,5.54.16,24.39,24.39,0,0,1,5.23,1.1,10.43,10.43,0,0,1,4.3,2.53,7.25,7.25,0,0,1,1.88,5,12.51,12.51,0,0,1-1.31,5.46,8,8,0,0,0-2.65-4.48,11,11,0,0,0-4.27-2.09,21.73,21.73,0,0,0-5-.65c-1.72,0-4.31-.5-4.79-.2-.32.2-.57,1.73-.67,2.59s-.19,1.76-.27,2.68a12.7,12.7,0,0,0,2.33.55c.88.14,1.79.26,2.72.37s1.86.19,2.77.25l2.43.13a7.35,7.35,0,0,1-.16,1.78l-.35,1.46a9.85,9.85,0,0,0-.25,1.44,6.25,6.25,0,0,0,.1,1.73,6.44,6.44,0,0,1-2.12,0c-1-.12-2.06-.26-3.18-.45l-3.12-.51-1.92-.29a3.53,3.53,0,0,0-.37,1.15c-.08.48-.15,1-.23,1.53s-.13,1.09-.18,1.62-.13,1-.21,1.4q1.09.32,2.58.69c1,.26,2,.5,3.12.74a31.49,31.49,0,0,0,3.3.54,15.77,15.77,0,0,0,3.13.07,7.75,7.75,0,0,0,2.62-.62A3.67,3.67,0,0,0,232,91a5.75,5.75,0,0,1,.62,4.76,6.53,6.53,0,0,1-2.79,3.35,11,11,0,0,1-4.9,1.54,16,16,0,0,1-5.84-.69c-1.32-.36-2.84-.75-4.36-1.28s-3-1-4.45-1.32a16,16,0,0,0-4.05-.47,4.3,4.3,0,0,0-3.07,1.21,5.38,5.38,0,0,1,.47-3.08,7.15,7.15,0,0,1,1.91-2.56,3.15,3.15,0,0,0,1.14-2.17q.29-3.12.63-6.18c.22-2,.44-4.11.64-6.19l.25-2.7A6.07,6.07,0,0,0,208.05,72.43Z" transform="translate(-70.91 -63.81)"/><path class="cls-1" d="M259.91,95.93a3.2,3.2,0,0,1,2.54,1.67,4.48,4.48,0,0,1,.34,3.36,10,10,0,0,1-2.09,3.89,7.19,7.19,0,0,1-2.79,2,8,8,0,0,1-3.28.48,19.26,19.26,0,0,1-3.55-.52,28.85,28.85,0,0,1-3.62-1.12c-1.21-.46-2.37-.9-3.45-1.29a17.31,17.31,0,0,1-2.16-.94,21.64,21.64,0,0,0-2.59-1.09,14.83,14.83,0,0,0-2.82-.66,6.09,6.09,0,0,0-2.82.29.52.52,0,0,1-.64-.18,1,1,0,0,1-.15-.74c.1-.6.16-1.27.28-1.89a14.86,14.86,0,0,1,.46-1.86,5.19,5.19,0,0,1,.81-1.59,6.65,6.65,0,0,1,1.29-1.31,49,49,0,0,1,4.64-3.3q2.44-1.55,5-3t5-3c1.66-1,3.29-2.08,4.87-3.24a6.63,6.63,0,0,0-1.55-.94,22.64,22.64,0,0,0-2.11-.87c-.75-.27-1.49-.51-2.21-.72a18.08,18.08,0,0,0-1.79-.44,8.78,8.78,0,0,0-3-.11,2.91,2.91,0,0,0-1.57.69,1.16,1.16,0,0,0-.34,1.13,2.45,2.45,0,0,0,.71,1.23,5.71,5.71,0,0,1-2.68-.87,5.6,5.6,0,0,1-1.78-1.78,5.09,5.09,0,0,1-.75-2.27,4,4,0,0,1,.48-2.3,7.35,7.35,0,0,1,2.74-2.51,7.82,7.82,0,0,1,3.27-.82,12.75,12.75,0,0,1,3.64.44A37.32,37.32,0,0,1,252,73a93.21,93.21,0,0,0,9.18,2.86q4.44,1.14,9.13,1.86c-.63,1.23-1.27,2.48-1.93,3.74a8.5,8.5,0,0,0-.92,4.16c-1.68.86-3.5,1.75-5.48,2.67s-3.94,1.88-5.9,2.85-3.84,2-5.61,3a40.31,40.31,0,0,0-4.6,3.06,16.28,16.28,0,0,0,1.87.64c.7.2,1.39.4,2.09.58l2,.55c.67.17,1.28.37,1.8.53a8.63,8.63,0,0,0,2.72.4,5.58,5.58,0,0,0,2.24-.44A2.58,2.58,0,0,0,260,98.14,2.89,2.89,0,0,0,259.91,95.93Z" transform="translate(-70.91 -63.81)"/><path class="cls-1" d="M291.63,85.73a11.93,11.93,0,0,1,.23,2c.07,1.1.12,2.47.13,4.11s0,3.43-.09,5.39-.22,4-.44,6-.48,4-.79,5.84a48.26,48.26,0,0,1-1.09,5,14.6,14.6,0,0,1-1.38,3.47c-.52.86-1.1,1.23-1.66,1.22a14.77,14.77,0,0,1-2.17-.18,7.67,7.67,0,0,1-2-.66c-.44-.22-.93-.51-1.48-.84s-1.08-.68-1.6-1.06a14.44,14.44,0,0,1-1.45-1.2,5.45,5.45,0,0,1-1-1.24,2.3,2.3,0,0,0,1.51-.48,4.55,4.55,0,0,0,1.26-1.41,6.87,6.87,0,0,0,.8-2.07,8.86,8.86,0,0,0,.21-2.49,37.21,37.21,0,0,1-9.2-3.49,12.08,12.08,0,0,0-1.68,1.8,7.91,7.91,0,0,0-1.17,2,4.84,4.84,0,0,0-.29,2.07,2.94,2.94,0,0,0,.87,1.83,5.42,5.42,0,0,1-1.69,0,11.85,11.85,0,0,1-2-.39,12.1,12.1,0,0,1-1.82-.68,4.64,4.64,0,0,1-1.27-.83,2.6,2.6,0,0,1-.83-2.11,6.14,6.14,0,0,1,.69-2.34,31.38,31.38,0,0,1,3.06-4.71A46.68,46.68,0,0,1,269,96.11q2-2,4.16-3.86t4.29-3.6a5.38,5.38,0,0,1-1.56-3,4.82,4.82,0,0,1,.51-2.82,5.67,5.67,0,0,1,2.06-2.13,6.22,6.22,0,0,1,3-.92,2.65,2.65,0,0,0-.77,1.8,2.72,2.72,0,0,0,.56,1.6,4.12,4.12,0,0,0,1.51,1.2,6.77,6.77,0,0,0,2.17.59c1.11.14,2.27.35,3.36.45S290.51,85.6,291.63,85.73Zm-9.8,7.39a14.76,14.76,0,0,0-1.39,1c-.64.48-1.29,1-1.95,1.6s-1.25,1.15-1.8,1.69a4.26,4.26,0,0,0-1,1.26c1,.56,2,1.08,3,1.54a7.89,7.89,0,0,0,2.63.79q.27-1.92.48-3.87A22,22,0,0,0,281.83,93.12Z" transform="translate(-70.91 -63.81)"/><path class="cls-1" d="M237.18,164.39c-.28-2.64-1.5-4.72-2.52-7.09a38.31,38.31,0,0,1-.94-3.91A31.32,31.32,0,0,0,227.18,142c-2.33-2.56-5.34-4.32-7.62-6.89a60.5,60.5,0,0,0-6.38-6.72c-6.61-5.6-14.94-7.78-23.17-10-4.47-1.18-9.12-.36-13.69-.29a34.2,34.2,0,0,0-11.4,1.92c-3.34,1.2-7,1.61-10.28,2.94-3.46,1.44-5.2,5-7.44,7.8s-2.55,6.36-4.91,8.74c-1.6,1.62-2.82,1-4.08,3.55l.12,0a6.63,6.63,0,0,0-1.38,2c-1.84,4.13-2.8,8.92-5,12.82-1.05,1.84-1.33,3.89-2.15,5.8a13.52,13.52,0,0,0-2.82,6.42c-.27,2.6-.16,4.32,2.12,5.92a11.12,11.12,0,0,1,2,1.59c3.55,4.13-.48,7-3.28,9.9s-.38,6.26,2.91,6.37a6.3,6.3,0,0,1,3.11.57,20.89,20.89,0,0,0,6.56,2.56,11.19,11.19,0,0,1,3.65,1.15c2.16,1.34,4,3.1,6.81,2.89a15.42,15.42,0,0,1,3.9,0l.49.06a10.17,10.17,0,0,0,6.66-.56,6.08,6.08,0,0,0,2.09-1.88c.91-1.21,2.81-1.47,3.55-2.66,1.41-2.27-1.3-2.87-2.77-4-1.29-1-2.53-.21-3.54.74a4.24,4.24,0,0,0-1.15,1.1c-.7.93-2.27,0-1.58-.91,1.43-1.93,3.6-4.68,6.36-3,2.35,1.44,6.54,3.41,9.43,2.65a13.4,13.4,0,0,1,5.39-.32c2.91.37,5.14-1.43,7.81-1.26a10.85,10.85,0,0,1,5.06,1.64c3.56,2.07,6.21,1.23,9.35-1,1-.72,3.56-.11,4.44,0,.07,0,.11,0,.17.05a.78.78,0,0,1,.93.21,8,8,0,0,1,2.34,3.74c.5,2.22,3.31,2,5,2.64a3.23,3.23,0,0,1,2,2c.47,2.2,1.81,2.72,3.9,2.57a.75.75,0,0,1,.58.18c6-4,7.74-11.52,9.91-17.9,1.38-4,5.18-6.12,5.19-10.79,0-3.24,1.16-6.94.81-10.1m-103.69-2.56c.37-1.62,1.54-2.9,2.51-4.18,1.56-2.05.74-4.13,1.79-6.36,1.6-3.39,2.87-9.31,7.73-6.86A7.53,7.53,0,0,1,148.6,148a11.48,11.48,0,0,1,1,4c-.27,2.71-1.81,3.29-3.49,3.83a10.37,10.37,0,0,0-4.09,1.67c-1.11.88-1.67,2.53-2.28,3.74a6.3,6.3,0,0,1-3.81,3.18c-2.42.4-3.26-.43-2.47-2.55m15.72,17.5c0,.84.15,2.78-.79,3.32a11.54,11.54,0,0,1-5.66,1h0c-1.63-.35-3-2-1.49-3.5a16.41,16.41,0,0,1,4.18-2.55,6.2,6.2,0,0,0,1.36-.74.46.46,0,0,0,.1-.05v0a.76.76,0,0,0,.19-.12c.81-.67-.23-2-1.1-1.43-.71.43-1.57.84-2.44,1.28a15.6,15.6,0,0,0-3.43,1.29c-1.44.88-2.29,2.41-3.92,3a.94.94,0,0,1-.92-.73v0c-.63-1.67-.11-3.23,0-4.9a18.68,18.68,0,0,1,1.61-4.43c.65-1.2,1.42-2.31,2-3.53.21-.31.43-.62.61-.95.84-1.44,1.8-2.68,2.77-4a21.6,21.6,0,0,1,2.31-3.29,12.79,12.79,0,0,1,1.4-.78,1,1,0,0,1,.58.22c1,2.29.8,4.85,1,7.36.22,2.24,1.63,3.91,2.18,6,.31,1.17-.32,1.48.33,2.86,1.15,2.4-.77,2.5-.86,4.74M215.7,143.1a.81.81,0,0,1,.88.43.55.55,0,0,1,.14.09,24.83,24.83,0,0,1,2.61,2.62,5.33,5.33,0,0,1,.8,2.81c.12,1.21-1.88,1.47-2.11.29a3.9,3.9,0,0,0-1.31-2.43,9.09,9.09,0,0,1-1.78-.92c-1.32-1.1-1-2.69.77-2.89m-20.36-14.51c2.92.81,7,.78,9.12,3.18a4.35,4.35,0,0,1,.65,1.2c.69,1.7,1.6,1.49,2.66,2.31,1.24,1,2,2.31,3.14,3.35.91.81-.27,2.37-1.29,1.68-1.34-.9-2.46-2.64-3.89-3.29a5.67,5.67,0,0,1-2.31-1.57c-1.43-1.88-2.39-3.1-4.78-3.69-1.28-.31-2.55-.57-3.82-.95a1,1,0,0,1-.68-.64,1.09,1.09,0,0,1,1.2-1.58m-17,42.15c-1.29,3.56-3.76,3.15-6.76,4.43-4.25,1.79-7,0-10.33-2.39s-4.83-6-5.6-9.82a7.6,7.6,0,0,1,.76-2.71,21.67,21.67,0,0,0,2.16-4.81,4.38,4.38,0,0,1,2.21-2.21c1.89-.64,3.9-.93,5.73.14,1,.6,1.85,1.44,2.81,2.11a4.33,4.33,0,0,0,.9.8c2.59,1.63,5.72,1.79,7.44,4.73,2,3.37,2,6.22.68,9.73m29.19,15.48-.14,0a.9.9,0,0,1-.38.13,52.54,52.54,0,0,1-8.78,0h-.8a14.45,14.45,0,0,1-3.73.28,10.67,10.67,0,0,1-2.92-.14c-2.29-.44-4.42-3.06-6.6-4a3.2,3.2,0,0,1-1.68-1.38c-2.4-3.3,3.7-7.93,4.12-10.66s-1.84-5.91-.87-8.59a13.67,13.67,0,0,1,2.28-4,.75.75,0,0,1,.56-.31c.7-.15,1.51.55,1,1.3-2.15,3.14-.83,5.11-.22,8.39.2,1,.61,2.49.2,3.53-1.28,3.19-6.81,8.33-1,10.69a4.25,4.25,0,0,1,2.08,1.25c1.57,1.88,3.46,1.64,5.54,1.5,3-.19,6.13.58,9.13.41l.59-.05a10.41,10.41,0,0,0,1.12-.16c1.15-.24,1.63,1.51.48,1.75" transform="translate(-70.91 -63.81)"/><path class="cls-1" d="M111.66,169.93a18.72,18.72,0,0,0-3.88,4.89.76.76,0,0,1-.35.36.69.69,0,0,1,0,.49,7,7,0,0,0-.28,1.16.78.78,0,0,1-.7.63.76.76,0,0,1-.76-.55l-.15-.56a.75.75,0,0,1,.13-.65,5.31,5.31,0,0,0,.4-.61.75.75,0,0,1,.33-.33.79.79,0,0,1,0-.46,6.33,6.33,0,0,0-.36-3.89c-.81-2.25-1.74-4.51-2.64-6.69l-1-2.54a2.53,2.53,0,0,0-.11-.38.42.42,0,0,1-.11-.18.85.85,0,0,0-1.16-.47,1.27,1.27,0,0,0-.64.63.76.76,0,0,0,0,.61,19.64,19.64,0,0,1,0,4.9c-.33,3.87-.7,8.24,2.84,9.79a.78.78,0,0,1,.42.5c.15.59.32,1.19.49,1.79a.87.87,0,0,1-.16.78.78.78,0,0,1-.7.28,1.51,1.51,0,0,1-.58-.29c-2.09-2.51-4.93-2.72-8-2.93a25.64,25.64,0,0,1-4.16-.55,1,1,0,0,0-1.16.51,1.05,1.05,0,0,0,.31,1.28,12.23,12.23,0,0,0,2.52,1.4c.61.28,1.15.53,1.67.83.29.17.58.34.86.52a15.09,15.09,0,0,0,2.48,1.31,6,6,0,0,0,5-.08.67.67,0,0,1,.48-.07,18.41,18.41,0,0,1,2,.49.78.78,0,0,1,.49.51c.37,1.35.77,2.68,1.17,4a.75.75,0,0,1-.21.76.73.73,0,0,1-.78.14,7,7,0,0,1-.69-.31.79.79,0,0,1-.25-.2,6.09,6.09,0,0,0-5-2.14,18.62,18.62,0,0,0-2.26.18l-.78.08a18.06,18.06,0,0,1-2.54,0c-.62,0-1.24,0-1.88,0a1.1,1.1,0,0,0-1,1,.82.82,0,0,0,.68.92,14.55,14.55,0,0,1,4.16,1.59,9,9,0,0,0,2.92,1.25,6.36,6.36,0,0,0,4.54-.85.76.76,0,0,1,.47-.1,1.25,1.25,0,0,1,.26.07,21.46,21.46,0,0,0,2.26.87l.9.31a.77.77,0,0,1,.45.48c.52,1.62,1.07,3.22,1.62,4.82a1,1,0,0,1-.09.84c-.18.2-.39.41-.66.36l-.5-.06a.74.74,0,0,1-.54-.33,5.44,5.44,0,0,0-3.87-2.48,24.06,24.06,0,0,0-3.87-.11A16.14,16.14,0,0,1,94,193a1,1,0,0,0-1.22.63.85.85,0,0,0,.38,1.15c.63.33,1.33.76,2.09,1.22,3.6,2.17,8.46,5.11,11.76,2.53a.72.72,0,0,1,.55-.15,19.74,19.74,0,0,1,2.45.36.73.73,0,0,1,.55.48l.33.92a.74.74,0,0,1-.25.85,7.18,7.18,0,0,0-2.35,3,.92.92,0,0,0,0,.67.87.87,0,0,0,.49.47,1.17,1.17,0,0,0,.88,0,1,1,0,0,0,.55-.56,5.19,5.19,0,0,1,.72-1.17.75.75,0,0,1,1.27.2l.06.17.24.61a.75.75,0,0,1-.25.87,4.55,4.55,0,0,0-.82.82.1.1,0,0,1,0,0,.88.88,0,0,0,.22,1.21,1.13,1.13,0,0,0,1.16.12.71.71,0,0,1,.62-.05.73.73,0,0,1,.43.43l.1.26c.33.88.66,1.76,1,2.62a.83.83,0,0,0,.66.56,1.14,1.14,0,0,0,1-.44,1.42,1.42,0,0,0,.13-1c-.32-.76-.61-1.53-.91-2.3a.7.7,0,0,1,.1-.69.75.75,0,0,1,.62-.32,1.16,1.16,0,0,0,1-.65.84.84,0,0,0,.06-.65.86.86,0,0,0-.44-.48,4.68,4.68,0,0,0-2.1-.5.75.75,0,0,1-.7-.48l-.34-.89a.65.65,0,0,1,.08-.68.74.74,0,0,1,.59-.33,12.61,12.61,0,0,1,1.5.06.88.88,0,0,0,.82-.37,1,1,0,0,0,.08-1.07.93.93,0,0,0-.81-.55,10.3,10.3,0,0,0-2.66.06.74.74,0,0,1-.83-.48l-.61-1.68a.76.76,0,0,1,.12-.71c.48-.62,1-1.25,1.43-1.88a.76.76,0,0,1,.56-.31c1.47-.09,2.83-1,4.16-2.83a48.83,48.83,0,0,0,3.23-5.33c.68-1.22,1.38-2.5,2.13-3.69a1,1,0,0,0-.29-1.35.86.86,0,0,0-1.2.06,50.1,50.1,0,0,1-4.79,4.21c-1,.81-2,1.62-3,2.49a5.4,5.4,0,0,0-2.08,4.78.76.76,0,0,1-.12.53l-.17.25a.74.74,0,0,1-.72.29.73.73,0,0,1-.59-.49l-.1-.3c-.46-1.34-.92-2.68-1.35-4a1.22,1.22,0,0,1,.32-1c.4-.62.82-1.24,1.23-1.85a.78.78,0,0,1,.55-.33.9.9,0,0,0,.51-.2c.4-.3.78-.56,1.12-.81a9.45,9.45,0,0,0,3.73-4,57.09,57.09,0,0,0,2.87-6.93,1,1,0,0,0-.5-1.18.85.85,0,0,0-1.1.13c-.83.92-1.77,1.79-2.69,2.64a27.61,27.61,0,0,0-4.12,4.42h0a7.53,7.53,0,0,0-1.37,3.92.66.66,0,0,1-.12.47l-.41.6a.73.73,0,0,1-1.32-.2c-.33-1.09-.66-2.18-1-3.28a.68.68,0,0,1,0-.54,9.24,9.24,0,0,1,1.11-1.72.71.71,0,0,1,.34-.25c4.14-2.28,5.62-6.49,6.78-10.61a1,1,0,0,0-.55-1.16,1,1,0,0,0-1.15.22l0,0-.09.1c-.58.66-1.22,1.31-1.88,2" transform="translate(-70.91 -63.81)"/><path class="cls-1" d="M251.24,169.93a18.76,18.76,0,0,1,3.89,4.89.7.7,0,0,0,.34.36.75.75,0,0,0,0,.49,8.19,8.19,0,0,1,.28,1.16.74.74,0,0,0,1.45.08l.15-.56a.75.75,0,0,0-.13-.65,5.19,5.19,0,0,1-.39-.61.77.77,0,0,0-.34-.33.72.72,0,0,0,0-.46,6.33,6.33,0,0,1,.36-3.89c.81-2.25,1.74-4.51,2.63-6.69l1-2.54a3.62,3.62,0,0,1,.12-.38.42.42,0,0,0,.11-.18.83.83,0,0,1,1.15-.47,1.2,1.2,0,0,1,.64.63.76.76,0,0,1,0,.61,19.64,19.64,0,0,0,0,4.9c.32,3.87.7,8.24-2.84,9.79a.75.75,0,0,0-.42.5c-.16.59-.32,1.19-.49,1.79a.87.87,0,0,0,.16.78.76.76,0,0,0,.69.28,1.55,1.55,0,0,0,.59-.29c2.08-2.51,4.93-2.72,7.94-2.93a25.76,25.76,0,0,0,4.17-.55,1,1,0,0,1,1.16.51,1.05,1.05,0,0,1-.32,1.28,11.91,11.91,0,0,1-2.51,1.4,17.33,17.33,0,0,0-1.67.83l-.87.52a14.6,14.6,0,0,1-2.47,1.31,6,6,0,0,1-5.05-.08.7.7,0,0,0-.49-.07,18.18,18.18,0,0,0-1.94.49.76.76,0,0,0-.49.51c-.37,1.35-.78,2.68-1.17,4a.74.74,0,0,0,1,.9,5.93,5.93,0,0,0,.68-.31.62.62,0,0,0,.25-.2,6.09,6.09,0,0,1,5-2.14,18.79,18.79,0,0,1,2.27.18l.78.08a17.92,17.92,0,0,0,2.53,0c.62,0,1.25,0,1.88,0a1.11,1.11,0,0,1,1,1,.83.83,0,0,1-.68.92,14.73,14.73,0,0,0-4.17,1.59,9,9,0,0,1-2.91,1.25,6.4,6.4,0,0,1-4.55-.85.74.74,0,0,0-.46-.1,1.34,1.34,0,0,0-.27.07,19.89,19.89,0,0,1-2.26.87l-.89.31a.78.78,0,0,0-.46.48c-.51,1.62-1.06,3.22-1.61,4.82a1,1,0,0,0,.09.84c.17.2.39.41.65.36l.51-.06a.76.76,0,0,0,.54-.33,5.44,5.44,0,0,1,3.86-2.48,24.09,24.09,0,0,1,3.87-.11A16.2,16.2,0,0,0,269,193a1,1,0,0,1,1.22.63.85.85,0,0,1-.38,1.15c-.63.33-1.34.76-2.09,1.22-3.6,2.17-8.47,5.11-11.76,2.53a.74.74,0,0,0-.55-.15,20.19,20.19,0,0,0-2.46.36.76.76,0,0,0-.55.48l-.33.92a.77.77,0,0,0,.25.85,7,7,0,0,1,2.35,3,.82.82,0,0,1-.46,1.14,1.19,1.19,0,0,1-.89,0,1,1,0,0,1-.54-.56,5.19,5.19,0,0,0-.72-1.17.78.78,0,0,0-.7-.26.76.76,0,0,0-.57.46l-.07.17-.24.61a.78.78,0,0,0,.25.87,4.55,4.55,0,0,1,.82.82l0,0a.87.87,0,0,1-.22,1.21,1.11,1.11,0,0,1-1.15.12.71.71,0,0,0-.62-.05.7.7,0,0,0-.43.43l-.1.26c-.33.88-.66,1.76-1,2.62a.86.86,0,0,1-.66.56,1.13,1.13,0,0,1-1-.44,1.32,1.32,0,0,1-.13-1c.32-.76.61-1.53.9-2.3a.68.68,0,0,0-.09-.69.76.76,0,0,0-.63-.32,1.17,1.17,0,0,1-1-.65.89.89,0,0,1-.06-.65.84.84,0,0,1,.45-.48,4.68,4.68,0,0,1,2.1-.5.74.74,0,0,0,.69-.48l.35-.89a.65.65,0,0,0-.08-.68.75.75,0,0,0-.6-.33,12.46,12.46,0,0,0-1.49.06.87.87,0,0,1-.82-.37,1,1,0,0,1-.08-1.07.93.93,0,0,1,.81-.55,10.3,10.3,0,0,1,2.66.06.76.76,0,0,0,.83-.48l.6-1.68a.75.75,0,0,0-.11-.71c-.49-.62-1-1.25-1.43-1.88a.78.78,0,0,0-.56-.31c-1.47-.09-2.83-1-4.16-2.83a50.56,50.56,0,0,1-3.24-5.33c-.67-1.22-1.37-2.5-2.12-3.69a1,1,0,0,1,.28-1.35.87.87,0,0,1,1.21.06,50.1,50.1,0,0,0,4.79,4.21c1,.81,2,1.62,3,2.49a5.37,5.37,0,0,1,2.07,4.78.72.72,0,0,0,.13.53l.17.25a.74.74,0,0,0,.72.29.73.73,0,0,0,.59-.49l.1-.3c.46-1.34.92-2.68,1.35-4a1.22,1.22,0,0,0-.32-1c-.41-.62-.82-1.24-1.24-1.85a.78.78,0,0,0-.54-.33.93.93,0,0,1-.52-.2c-.4-.3-.77-.56-1.12-.81a9.43,9.43,0,0,1-3.72-4,55.53,55.53,0,0,1-2.88-6.93,1,1,0,0,1,.5-1.18.86.86,0,0,1,1.11.13c.82.92,1.77,1.79,2.68,2.64a27.16,27.16,0,0,1,4.12,4.42h0A7.53,7.53,0,0,1,253,184.3a.77.77,0,0,0,.12.47l.41.6a.74.74,0,0,0,1.33-.2c.33-1.09.65-2.18,1-3.28a.68.68,0,0,0-.06-.54,9.75,9.75,0,0,0-1.1-1.72.73.73,0,0,0-.35-.25c-4.14-2.28-5.61-6.49-6.78-10.61a1,1,0,0,1,.56-1.16,1,1,0,0,1,1.15.22s0,0,0,0l.09.1c.58.66,1.23,1.31,1.88,2" transform="translate(-70.91 -63.81)"/></svg>